# xmcd
#
# Track frame offsets: 
#        150
#        16502
#        35614
#        57261
#        75143
#        102753
#        119255
#        134362
#        152544
#        167246
#
# Disc length: 2481 seconds
#
# Revision: 0
# Processed by: cddbd v1.5.2PL0 Copyright (c) Steve Scherf et al.
# Submitted via: ExactAudioCopy v1.0b4
#
DISCID=6a09af0a
DTITLE=Sean Chambers - Ten Til Midnight
DYEAR=2009
DGENRE=Blues
TTITLE0=Ten Til Midnight
TTITLE1=Blues And Rock 'N' Roll
TTITLE2=All The King's Horses
TTITLE3=You're Gonna Miss Me
TTITLE4=In The Winter Time
TTITLE5=Too Much Blues
TTITLE6=Make It Go
TTITLE7=Brown Sugar
TTITLE8=When I Get Lonely
TTITLE9=I Don't Know Why
EXTD=
EXTT0=
EXTT1=
EXTT2=
EXTT3=
EXTT4=
EXTT5=
EXTT6=
EXTT7=
EXTT8=
EXTT9=
PLAYORDER=
